<?xml version="1.0" encoding="UTF-8"?>
<!-- Generator: Adobe Illustrator 25.4.1, SVG Export Plug-In . SVG Version: 6.00 Build 0)  -->
<svg version="1.0" id="Layer_1" xmlns="http://www.w3.org/2000/svg" xmlns:xlink="http://www.w3.org/1999/xlink" x="0px" y="0px" viewBox="0 0 398 156" style="enable-background:new 0 0 398 156;" width="398" height="156" xml:space="preserve">
<style type="text/css">
	.st0{fill:#161748;}
	.st1{fill:#007fad;}
	.st2{fill:#892164;}
	.st3{fill:#FFFFFF;}
	.st4{fill:#AAAAAA;}
</style>
<rect x="213.3" y="48.5" class="st4" width="1.5" height="59"/>
<path class="st0" d="M15,60.3H0V95h6.9v-9.2H15c7.1,0,12.8-5.7,12.8-12.8C27.8,66,22.1,60.3,15,60.3z M15,79.1H6.9V67H15  c3.3,0,6.1,2.7,6.1,6.1C21.1,76.3,18.4,79.1,15,79.1z"/>
<path class="st0" d="M80.1,60.3c-9.7,0-17.7,8-17.7,17.7c0,10,8,17.7,17.7,17.7S97.8,88.1,97.8,78C97.8,68.3,89.8,60.3,80.1,60.3z   M90.5,78c0,6.1-4.8,10.6-10.5,10.6c-5.7,0-10.5-4.6-10.5-10.6c0.1-5.9,4.3-10.6,10.5-10.7C86.3,67.4,90.5,72.1,90.5,78z"/>
<polygon class="st0" points="126.5,61 117.6,81.2 108.8,61 105.5,61 98.8,95 106.2,95 109.1,78.7 116.3,95 119,95 126.1,78.7   129,95 136.5,95 129.8,61 "/>
<path class="st0" d="M59,73.1c0-7.1-5.7-12.8-12.8-12.8h-15V95h6.9v-9.4h6.1l6.2,9.4h8l-6.7-10.5C56,82.6,59,78.2,59,73.1z   M38.1,79.1V67h8c3.3,0,6.1,2.7,6.1,6.1s-2.7,6.1-6.1,6.1C46,79.1,38.1,79.1,38.1,79.1z"/>
<rect x="140.3" y="61" class="st1" width="7.2" height="34.1"/>
<path class="st1" d="M169.5,88.8c-6,0-10.8-4.8-10.8-10.7s4.8-10.8,10.8-10.8c2.5,0,4.9,0.9,6.8,2.4l4.4-5.5  c-3-2.5-6.9-3.9-11.2-3.9c-9.7,0-17.7,8-17.7,17.7s8,17.7,17.7,17.7c4.2,0,8.1-1.5,11.2-3.9l-4.4-5.5  C174.5,87.9,172.2,88.8,169.5,88.8z"/>
<polygon class="st1" points="204.4,67.9 204.4,61 184.5,61 184.5,95 204.4,95 204.4,88.1 191.7,88.1 191.7,79.9 199,79.9 199,73.1   191.7,73.1 191.7,67.9 "/>
<g>
	<path class="st0" d="M288.6,74.9h13.8v6.2h-13.8V74.9z"/>
	<g>
		<path class="st0" d="M245.2,88.1c-1.2,0.5-2.5,0.7-3.9,0.7c-6,0-10.8-4.8-10.8-10.7c0-5.9,4.8-10.8,10.8-10.8    c2.5,0,4.9,0.9,6.8,2.4l4.4-5.5c-3-2.5-6.9-3.9-11.2-3.9c-9.7,0-17.7,8-17.7,17.7s8,17.7,17.7,17.7c4.2,0,8.1-1.5,11.2-3.9V77.9    h-7.2V88.1z"/>
		<path class="st0" d="M272.9,88.8c-6,0-10.8-4.8-10.8-10.7c0-5.9,4.8-10.8,10.8-10.8c2.5,0,4.9,0.9,6.8,2.4l4.4-5.5    c-3-2.5-6.9-3.9-11.2-3.9c-9.7,0-17.7,8-17.7,17.7s8,17.7,17.7,17.7c4.2,0,8.1-1.5,11.2-3.9l-4.4-5.5    C277.9,88,275.6,88.8,272.9,88.8z"/>
	</g>
	<g>
		<path class="st0" d="M339.8,61v34h-6.5l-17-20.7V95h-7.8V61h6.5l17,20.7V61H339.8z"/>
		<path class="st0" d="M376.8,67.5h-10.9V61h29.5v6.4h-10.8V95h-7.9V67.5H376.8z"/>
		<polygon class="st0" points="362.8,67.9 362.8,61 342.9,61 342.9,95 362.8,95 362.8,88.1 350.1,88.1 350.1,79.9 357.3,79.9     357.3,73.1 350.1,73.1 350.1,67.9   "/>
	</g>
</g>
</svg>